<svg width="38" height="38" viewBox="0 0 38 38" fill="none" xmlns="http://www.w3.org/2000/svg">
<g id="Cart">
<g id="Vector">
<path d="M33.3766 11.0833C33.103 10.6093 32.7113 10.2143 32.2395 9.93681C31.7678 9.65932 31.2322 9.50882 30.685 9.50001H10.4183L9.49996 5.92168C9.40718 5.57626 9.20017 5.27242 8.91266 5.05967C8.62516 4.84691 8.27408 4.73777 7.91663 4.75001H4.74996C4.33003 4.75001 3.92731 4.91683 3.63037 5.21376C3.33344 5.51069 3.16663 5.91342 3.16663 6.33335C3.16663 6.75327 3.33344 7.156 3.63037 7.45293C3.92731 7.74986 4.33003 7.91668 4.74996 7.91668H6.71329L11.0833 24.1617C11.1761 24.5071 11.3831 24.8109 11.6706 25.0237C11.9581 25.2364 12.3092 25.3456 12.6666 25.3333H26.9166C27.209 25.3325 27.4955 25.2506 27.7442 25.0969C27.9929 24.9432 28.1942 24.7236 28.3258 24.4625L33.5191 14.0758C33.7442 13.604 33.849 13.0838 33.8241 12.5617C33.7993 12.0395 33.6455 11.5316 33.3766 11.0833ZM25.935 22.1667H13.87L11.2891 12.6667H30.685L25.935 22.1667Z" fill="#897C71"/>
<path d="M33.3766 11.0833C33.103 10.6093 32.7113 10.2143 32.2395 9.93681C31.7678 9.65932 31.2322 9.50882 30.685 9.50001H10.4183L9.49996 5.92168C9.40718 5.57626 9.20017 5.27242 8.91266 5.05967C8.62516 4.84691 8.27408 4.73777 7.91663 4.75001H4.74996C4.33003 4.75001 3.92731 4.91683 3.63037 5.21376C3.33344 5.51069 3.16663 5.91342 3.16663 6.33335C3.16663 6.75327 3.33344 7.156 3.63037 7.45293C3.92731 7.74986 4.33003 7.91668 4.74996 7.91668H6.71329L11.0833 24.1617C11.1761 24.5071 11.3831 24.8109 11.6706 25.0237C11.9581 25.2364 12.3092 25.3456 12.6666 25.3333H26.9166C27.209 25.3325 27.4955 25.2506 27.7442 25.0969C27.9929 24.9432 28.1942 24.7236 28.3258 24.4625L33.5191 14.0758C33.7442 13.604 33.849 13.0838 33.8241 12.5617C33.7993 12.0395 33.6455 11.5316 33.3766 11.0833ZM25.935 22.1667H13.87L11.2891 12.6667H30.685L25.935 22.1667Z" stroke="#897C71"/>
</g>
<g id="Vector_2">
<path d="M11.875 33.25C13.1867 33.25 14.25 32.1867 14.25 30.875C14.25 29.5633 13.1867 28.5 11.875 28.5C10.5633 28.5 9.5 29.5633 9.5 30.875C9.5 32.1867 10.5633 33.25 11.875 33.25Z" fill="#897C71"/>
<path d="M11.875 33.25C13.1867 33.25 14.25 32.1867 14.25 30.875C14.25 29.5633 13.1867 28.5 11.875 28.5C10.5633 28.5 9.5 29.5633 9.5 30.875C9.5 32.1867 10.5633 33.25 11.875 33.25Z" stroke="#897C71"/>
</g>
<g id="Vector_3">
<path d="M27.7084 33.25C29.0201 33.25 30.0834 32.1867 30.0834 30.875C30.0834 29.5633 29.0201 28.5 27.7084 28.5C26.3967 28.5 25.3334 29.5633 25.3334 30.875C25.3334 32.1867 26.3967 33.25 27.7084 33.25Z" fill="#897C71"/>
<path d="M27.7084 33.25C29.0201 33.25 30.0834 32.1867 30.0834 30.875C30.0834 29.5633 29.0201 28.5 27.7084 28.5C26.3967 28.5 25.3334 29.5633 25.3334 30.875C25.3334 32.1867 26.3967 33.25 27.7084 33.25Z" stroke="#897C71"/>
</g>
</g>
</svg>
