<svg width="39" height="36" viewBox="0 0 39 36" fill="none" xmlns="http://www.w3.org/2000/svg">
<g id="Hamburguesa Logo">
<path id="Vector" d="M36.4403 28.4003L3.53295 28.6748C2.65964 28.682 1.95087 27.9664 1.95087 27.0927V21.7531C1.95087 20.8798 2.65925 20.1711 3.53295 20.1711L36.6697 20.6514L36.4403 28.4003Z" fill="#A57939"/>
<path id="Vector_2" d="M16.8857 28.8116H2.74181C1.8685 28.8116 1.15973 29.3664 1.15973 30.0504V33.7675C1.15973 34.4517 1.86811 35.0063 2.74181 35.0063H35.9656C36.8389 35.0063 37.5477 34.4515 37.5477 33.7675V30.0504C37.5477 29.3661 36.8393 28.8116 35.9656 28.8116H21.893" fill="#F4AA41"/>
<path id="Vector_3" d="M28.8463 28.6771H35.9657C36.839 28.6771 37.5478 29.2441 37.5478 29.9436V33.7429C37.5478 34.4423 36.8394 35.0094 35.9657 35.0094H28.8463V28.6771Z" fill="#E27022"/>
<path id="Vector_4" d="M37.5477 11.4561C37.5477 12.029 36.8393 12.4939 35.9656 12.4939H2.74181C1.8685 12.4939 1.15973 12.0294 1.15973 11.4561C2.33364 5.55096 10.0273 0.990601 19.3537 0.990601C28.6801 0.990601 36.377 5.55096 37.5477 11.4561Z" fill="#F4AA41"/>
<path id="Vector_5" d="M24.1 1.65509C26.5316 4.26474 28.1786 7.84342 28.8462 12.4686H35.9656C36.8389 12.4686 37.5477 12.0147 37.5477 11.4553C36.3611 5.75902 29.1152 2.33459 24.1 1.6543V1.65509Z" fill="#E27022"/>
<path id="Vector_6" d="M25.4366 19.6219H12.44L18.9383 26.1202L25.4366 19.6219Z" fill="#FCEA2B"/>
<path id="Vector_7" d="M28.8463 20.1181V28.6772H35.1747C36.048 28.6772 36.7567 27.9688 36.7567 27.0951V21.7555C36.7567 20.8822 36.0484 20.1734 35.1747 20.1734H29.9016" fill="#6A462F"/>
<path id="Vector_8" fill-rule="evenodd" clip-rule="evenodd" d="M3.79401 14.3593H34.9215V16.0149H3.79401V14.3593Z" fill="#EA5A47" stroke="#EA5A47" stroke-width="1.58209" stroke-linecap="round" stroke-linejoin="round"/>
<path id="Vector_9" fill-rule="evenodd" clip-rule="evenodd" d="M29.6691 14.3593H34.9382V16.041H29.6691V14.3593Z" fill="#D22F27" stroke="#D22F27" stroke-width="1.58209" stroke-linecap="round" stroke-linejoin="round"/>
<path id="Vector_10" d="M3.44594 19.0185L35.5465 18.7157C37.2962 18.3319 37.5391 17.9081 37.7076 16.9224C36.2355 17.9239 35.0964 17.9334 34.083 18.06C32.2486 18.0509 30.5534 18.0793 29.3898 16.5965L24.6459 16.2433L21.2143 17.7573L17.7828 17.7068L13.9977 16.3945L9.96018 16.1926C8.99353 17.3594 7.17413 17.6972 6.07379 18.0603C4.3857 17.7495 2.57896 18.6998 1.0127 16.9228C1.39991 18.1394 1.40711 18.4835 3.44911 19.019L3.44594 19.0185Z" fill="#B1CC33" stroke="#B1CC33" stroke-width="1.58209" stroke-linejoin="round"/>
<path id="Vector_11" d="M29.6531 19.6118L35.5369 18.7147C37.2867 18.3309 37.5295 17.9071 37.698 16.9214C36.2259 17.9229 35.0868 17.9324 34.0735 18.059C32.2391 18.0499 32.4218 18.0438 30.8468 17.2537L29.6531 16.5632V19.6118Z" fill="#5C9E31" stroke="#5C9E31" stroke-width="1.58209" stroke-linejoin="round"/>
<path id="Vector_12" fill-rule="evenodd" clip-rule="evenodd" d="M29.6691 14.3593H32.9796V16.041H29.6691V14.3593Z" fill="#D22F27" stroke="#D22F27" stroke-width="1.58209" stroke-linecap="round"/>
<path id="Vector_13" d="M16.8858 28.6771H3.53295C2.65964 28.6771 1.95087 27.9688 1.95087 27.0951V21.7555C1.95087 20.8822 2.65925 20.1734 3.53295 20.1734H35.1747C36.048 20.1734 36.7568 20.8818 36.7568 21.7555V27.0951C36.7568 27.9684 36.0484 28.6771 35.1747 28.6771H21.8931H16.8858Z" stroke="black" stroke-width="1.58209" stroke-miterlimit="10" stroke-linecap="round" stroke-linejoin="round"/>
<path id="Vector_14" d="M16.8857 28.8116H2.74181C1.8685 28.8116 1.15973 29.3664 1.15973 30.0504V33.7675C1.15973 34.4517 1.86811 35.0063 2.74181 35.0063H35.9656C36.8389 35.0063 37.5477 34.4515 37.5477 33.7675V30.0504C37.5477 29.3661 36.8393 28.8116 35.9656 28.8116H21.893H16.8857Z" stroke="black" stroke-width="1.58209" stroke-miterlimit="10" stroke-linecap="round" stroke-linejoin="round"/>
<path id="Vector_15" d="M37.5477 11.7726C37.5477 12.3455 36.8393 12.8104 35.9656 12.8104H2.74181C1.8685 12.8104 1.15973 12.3459 1.15973 11.7726C2.33364 5.86743 10.0273 1.30707 19.3537 1.30707C28.6801 1.30707 36.377 5.86743 37.5477 11.7726Z" stroke="black" stroke-width="1.58209" stroke-miterlimit="10" stroke-linecap="round" stroke-linejoin="round"/>
<path id="Vector_16" d="M25.0809 20.474H13.6266L19.3553 26.1411L25.0809 20.474Z" stroke="black" stroke-width="1.58209" stroke-miterlimit="10" stroke-linecap="round" stroke-linejoin="round"/>
<path id="Vector_17" d="M37.6981 16.6533C37.0954 16.9669 36.6238 17.3019 35.7307 17.4459C34.6486 17.7297 33.2168 17.6196 32.0904 17.4459C30.5652 17.1998 30.2694 16.397 28.45 16.0948C27.3235 15.9212 25.936 15.9212 24.8096 16.0948C22.991 16.3966 22.6951 17.1991 21.1692 17.4459C20.0428 17.6196 18.6553 17.6196 17.5288 17.4459C16.0037 17.1998 15.7079 16.397 13.8885 16.0948C12.762 15.9212 11.3745 15.9212 10.2481 16.0948C8.42947 16.3966 8.13362 17.1991 6.6077 17.4459C5.48126 17.6196 4.09377 17.6196 2.96732 17.4459C2.07424 17.3017 1.60277 16.9667 1 16.6533" stroke="black" stroke-width="1.58209" stroke-miterlimit="10" stroke-linecap="round" stroke-linejoin="round"/>
</g>
</svg>
