<svg width="38" height="38" viewBox="0 0 38 38" fill="none" xmlns="http://www.w3.org/2000/svg">
<g id="Menu">
<g id="person">
<path d="M19.4167 17.1944C20.7165 17.1944 21.987 16.8295 23.0676 16.1458C24.1483 15.4621 24.9906 14.4903 25.488 13.3534C25.9853 12.2164 26.1155 10.9653 25.8619 9.75833C25.6083 8.55134 24.9825 7.44264 24.0634 6.57245C23.1444 5.70226 21.9735 5.10965 20.6988 4.86956C19.424 4.62948 18.1027 4.7527 16.902 5.22364C15.7012 5.69459 14.6749 6.4921 13.9528 7.51534C13.2307 8.53858 12.8453 9.74159 12.8453 10.9722C12.8453 12.6225 13.5377 14.2051 14.77 15.372C16.0024 16.5389 17.6739 17.1944 19.4167 17.1944ZM19.4167 7.86111C20.0666 7.86111 20.7019 8.04358 21.2422 8.38543C21.7825 8.72728 22.2037 9.21317 22.4524 9.78165C22.701 10.3501 22.7661 10.9757 22.6393 11.5792C22.5125 12.1827 22.1996 12.737 21.7401 13.1721C21.2806 13.6072 20.6951 13.9035 20.0578 14.0236C19.4204 14.1436 18.7597 14.082 18.1594 13.8465C17.559 13.611 17.0458 13.2123 16.6848 12.7007C16.3237 12.189 16.131 11.5875 16.131 10.9722C16.131 10.1471 16.4772 9.35578 17.0934 8.77234C17.7096 8.18889 18.5453 7.86111 19.4167 7.86111ZM19.4167 20.3056C16.3668 20.3056 13.4417 21.4528 11.285 23.4948C9.12835 25.5369 7.91675 28.3065 7.91675 31.1944C7.91675 31.607 8.08983 32.0027 8.39793 32.2944C8.70603 32.5861 9.12389 32.75 9.55961 32.75C9.99532 32.75 10.4132 32.5861 10.7213 32.2944C11.0294 32.0027 11.2025 31.607 11.2025 31.1944C11.2025 29.1316 12.0679 27.1533 13.6084 25.6947C15.1488 24.2361 17.2382 23.4167 19.4167 23.4167C21.5953 23.4167 23.6846 24.2361 25.2251 25.6947C26.7656 27.1533 27.631 29.1316 27.631 31.1944C27.631 31.607 27.8041 32.0027 28.1122 32.2944C28.4203 32.5861 28.8382 32.75 29.2739 32.75C29.7096 32.75 30.1275 32.5861 30.4356 32.2944C30.7437 32.0027 30.9167 31.607 30.9167 31.1944C30.9167 28.3065 29.7051 25.5369 27.5485 23.4948C25.3918 21.4528 22.4667 20.3056 19.4167 20.3056Z" fill="#897C71"/>
<path d="M19.4167 17.1944C20.7165 17.1944 21.987 16.8295 23.0676 16.1458C24.1483 15.4621 24.9906 14.4903 25.488 13.3534C25.9853 12.2164 26.1155 10.9653 25.8619 9.75833C25.6083 8.55134 24.9825 7.44264 24.0634 6.57245C23.1444 5.70226 21.9735 5.10965 20.6988 4.86956C19.424 4.62948 18.1027 4.7527 16.902 5.22364C15.7012 5.69459 14.6749 6.4921 13.9528 7.51534C13.2307 8.53858 12.8453 9.74159 12.8453 10.9722C12.8453 12.6225 13.5377 14.2051 14.77 15.372C16.0024 16.5389 17.6739 17.1944 19.4167 17.1944ZM19.4167 7.86111C20.0666 7.86111 20.7019 8.04358 21.2422 8.38543C21.7825 8.72728 22.2037 9.21317 22.4524 9.78165C22.701 10.3501 22.7661 10.9757 22.6393 11.5792C22.5125 12.1827 22.1996 12.737 21.7401 13.1721C21.2806 13.6072 20.6951 13.9035 20.0578 14.0236C19.4204 14.1436 18.7597 14.082 18.1594 13.8465C17.559 13.611 17.0458 13.2123 16.6848 12.7007C16.3237 12.189 16.131 11.5875 16.131 10.9722C16.131 10.1471 16.4772 9.35578 17.0934 8.77234C17.7096 8.18889 18.5453 7.86111 19.4167 7.86111ZM19.4167 20.3056C16.3668 20.3056 13.4417 21.4528 11.285 23.4948C9.12835 25.5369 7.91675 28.3065 7.91675 31.1944C7.91675 31.607 8.08983 32.0027 8.39793 32.2944C8.70603 32.5861 9.12389 32.75 9.55961 32.75C9.99532 32.75 10.4132 32.5861 10.7213 32.2944C11.0294 32.0027 11.2025 31.607 11.2025 31.1944C11.2025 29.1316 12.0679 27.1533 13.6084 25.6947C15.1488 24.2361 17.2382 23.4167 19.4167 23.4167C21.5953 23.4167 23.6846 24.2361 25.2251 25.6947C26.7656 27.1533 27.631 29.1316 27.631 31.1944C27.631 31.607 27.8041 32.0027 28.1122 32.2944C28.4203 32.5861 28.8382 32.75 29.2739 32.75C29.7096 32.75 30.1275 32.5861 30.4356 32.2944C30.7437 32.0027 30.9167 31.607 30.9167 31.1944C30.9167 28.3065 29.7051 25.5369 27.5485 23.4948C25.3918 21.4528 22.4667 20.3056 19.4167 20.3056Z" stroke="#897C71"/>
</g>
</g>
</svg>
